<svg width="14" height="13" viewBox="0 0 14 13" fill="none" xmlns="http://www.w3.org/2000/svg">
<path d="M5.27777 6.50001C5.27777 6.21529 5.27777 6.0729 5.32429 5.96058C5.38631 5.81086 5.50528 5.69188 5.65502 5.62985C5.76733 5.58334 5.90972 5.58334 6.19444 5.58334H8.02777C8.31249 5.58334 8.45488 5.58334 8.5672 5.62985C8.71692 5.69188 8.8359 5.81086 8.89793 5.96058C8.94444 6.0729 8.94444 6.21529 8.94444 6.50001C8.94444 6.78473 8.94444 6.92712 8.89793 7.03944C8.8359 7.18916 8.71692 7.30814 8.5672 7.37017C8.45488 7.41668 8.31249 7.41668 8.02777 7.41668H6.19444C5.90972 7.41668 5.76733 7.41668 5.65502 7.37017C5.50528 7.30814 5.38631 7.18916 5.32429 7.03944C5.27777 6.92712 5.27777 6.78473 5.27777 6.50001Z" stroke="#27DA68" stroke-width="1.2"/>
<path opacity="0.4" d="M12.3056 3.44446V7.11112C12.3056 9.41575 12.3056 10.5681 11.5896 11.284C10.8737 12 9.72131 12 7.41669 12H6.80558C4.50093 12 3.34861 12 2.63265 11.284C1.91669 10.5681 1.91669 9.41575 1.91669 7.11112V3.44446" stroke="#27DA68" stroke-width="1.2" stroke-linecap="round"/>
<path d="M1 2.22222C1 1.64606 1 1.35798 1.17899 1.17899C1.35798 1 1.64606 1 2.22222 1H12C12.5762 1 12.8642 1 13.0432 1.17899C13.2222 1.35798 13.2222 1.64606 13.2222 2.22222C13.2222 2.79838 13.2222 3.08646 13.0432 3.26546C12.8642 3.44444 12.5762 3.44444 12 3.44444H2.22222C1.64606 3.44444 1.35798 3.44444 1.17899 3.26546C1 3.08646 1 2.79838 1 2.22222Z" stroke="#27DA68" stroke-width="1.2"/>
</svg>
