<svg width="14" height="15" viewBox="0 0 14 15" fill="none" xmlns="http://www.w3.org/2000/svg">
<path d="M5.14102 7.5C5.14102 7.16352 5.14102 6.99524 5.18754 6.8625C5.24956 6.68555 5.36853 6.54493 5.51827 6.47163C5.63058 6.41667 5.77297 6.41667 6.05769 6.41667H7.89102C8.17574 6.41667 8.31813 6.41667 8.43045 6.47163C8.58017 6.54493 8.69915 6.68555 8.76118 6.8625C8.80769 6.99524 8.80769 7.16352 8.80769 7.5C8.80769 7.83648 8.80769 8.00476 8.76118 8.13751C8.69915 8.31445 8.58017 8.45507 8.43045 8.52837C8.31813 8.58333 8.17574 8.58333 7.89102 8.58333H6.05769C5.77297 8.58333 5.63058 8.58333 5.51827 8.52837C5.36853 8.45507 5.24956 8.31445 5.18754 8.13751C5.14102 8.00476 5.14102 7.83648 5.14102 7.5Z" stroke="#22C55E" stroke-width="1.2"/>
<path opacity="0.4" d="M12.1688 3.88889V8.22222C12.1688 10.9459 12.1688 12.3078 11.4528 13.1538C10.7369 14 9.58455 14 7.27992 14H6.66881C4.36416 14 3.21185 14 2.49588 13.1538C1.77992 12.3078 1.77992 10.9459 1.77992 8.22222V3.88889" stroke="#22C55E" stroke-width="1.2" stroke-linecap="round"/>
<path d="M0.863251 2.44444C0.863251 1.76353 0.863251 1.42307 1.04224 1.21153C1.22123 1 1.50931 1 2.08547 1H11.8633C12.4394 1 12.7275 1 12.9065 1.21153C13.0855 1.42307 13.0855 1.76353 13.0855 2.44444C13.0855 3.12536 13.0855 3.46582 12.9065 3.67736C12.7275 3.88889 12.4394 3.88889 11.8633 3.88889H2.08547C1.50931 3.88889 1.22123 3.88889 1.04224 3.67736C0.863251 3.46582 0.863251 3.12536 0.863251 2.44444Z" stroke="#22C55E" stroke-width="1.2"/>
</svg>
