<svg width="12" height="12" viewBox="0 0 12 12" fill="none" xmlns="http://www.w3.org/2000/svg">
<path d="M10.5816 3.23368L5.84046 7.98307C5.36834 8.45602 3.96686 8.67508 3.65377 8.36143C3.34068 8.04779 3.55438 6.64388 4.0265 6.17093L8.7726 1.41654C8.88964 1.28862 9.03133 1.1858 9.18917 1.11426C9.34696 1.04272 9.51762 1.00394 9.69081 1.00028C9.86396 0.996635 10.0361 1.02817 10.1968 1.09299C10.3575 1.15782 10.5034 1.2546 10.6257 1.37746C10.748 1.50033 10.8442 1.64675 10.9084 1.80788C10.9727 1.96902 11.0038 2.14152 10.9996 2.31499C10.9955 2.48846 10.9563 2.65932 10.8845 2.81721C10.8126 2.9751 10.7096 3.11678 10.5816 3.23368Z" stroke="#333333" stroke-width="0.7" stroke-linecap="round" stroke-linejoin="round"/>
<path d="M5.47275 2.03883H2.98789C2.46067 2.03883 1.95507 2.24863 1.58227 2.62209C1.20947 2.99555 1 3.50206 1 4.0302V9.00863C1 9.53679 1.20947 10.0433 1.58227 10.4167C1.95507 10.7902 2.46067 11 2.98789 11H8.45459C9.5529 11 9.94551 10.1039 9.94551 9.00863V6.51942" stroke="#333333" stroke-width="0.7" stroke-linecap="round" stroke-linejoin="round"/>
</svg>
