<svg width="15" height="15" viewBox="0 0 15 15" fill="none" xmlns="http://www.w3.org/2000/svg">
<path d="M13.4561 3.90378L7.2926 10.078C6.67884 10.6928 4.85692 10.9776 4.4499 10.5699C4.04288 10.1621 4.32069 8.33704 4.93445 7.72221L11.1044 1.5415C11.2565 1.37521 11.4407 1.24154 11.6459 1.14854C11.851 1.05554 12.0729 1.00512 12.2981 1.00037C12.5231 0.995625 12.7469 1.03662 12.9558 1.12089C13.1647 1.20516 13.3544 1.33098 13.5134 1.4907C13.6724 1.65043 13.7974 1.84077 13.881 2.05024C13.9645 2.25972 14.0049 2.48397 13.9995 2.70949C13.9942 2.935 13.9432 3.15712 13.8498 3.36237C13.7564 3.56763 13.6225 3.75182 13.4561 3.90378Z" stroke="black" stroke-width="1.2" stroke-linecap="round" stroke-linejoin="round"/>
<path d="M6.81458 2.35049H3.58426C2.89887 2.35049 2.24159 2.62323 1.75695 3.10872C1.27231 3.59421 1 4.25268 1 4.93927V11.4112C1 12.0978 1.27231 12.7563 1.75695 13.2417C2.24159 13.7273 2.89887 14 3.58426 14H10.691C12.1188 14 12.6292 12.8351 12.6292 11.4112V8.17525" stroke="black" stroke-width="1.2" stroke-linecap="round" stroke-linejoin="round"/>
</svg>
