<svg width="14" height="15" viewBox="0 0 14 15" fill="none" xmlns="http://www.w3.org/2000/svg">
<path d="M13.0855 14H0.863251" stroke="#9333EA" stroke-width="1.2" stroke-linecap="round"/>
<path d="M1.47435 14V6.70587C1.47435 6.11914 1.69829 5.56043 2.08968 5.17063L5.75634 1.51885C6.45099 0.827049 7.49771 0.827049 8.19236 1.51885L11.859 5.17063C12.2504 5.56043 12.4744 6.11914 12.4744 6.70587V14" stroke="#9333EA" stroke-width="1.2" stroke-linecap="round"/>
<path d="M5.75214 5.09872H8.19658" stroke="#9333EA" stroke-width="1.2" stroke-linecap="round"/>
<path opacity="0.4" d="M5.14102 9.54933H8.80769" stroke="#9333EA" stroke-width="1.2" stroke-linecap="round"/>
<path opacity="0.4" d="M5.14102 11.6035H8.80769" stroke="#9333EA" stroke-width="1.2" stroke-linecap="round"/>
<path opacity="0.4" d="M10.641 13.9999V9.89168C10.641 8.6006 10.641 7.95505 10.283 7.55395C9.92503 7.15285 9.34888 7.15285 8.19657 7.15285H5.75212C4.5998 7.15285 4.02364 7.15285 3.66566 7.55395C3.30768 7.95505 3.30768 8.6006 3.30768 9.89168V13.9999" stroke="#9333EA" stroke-width="1.2"/>
</svg>
