<svg width="14" height="15" viewBox="0 0 14 15" fill="none" xmlns="http://www.w3.org/2000/svg">
<path d="M7.65983 1.15686L11.666 2.98336C12.8203 3.50621 12.8203 4.37066 11.666 4.89351L7.65983 6.72C7.20489 6.92914 6.45798 6.92914 6.00304 6.72L1.99689 4.89351C0.842569 4.37066 0.842569 3.50621 1.99689 2.98336L6.00304 1.15686C6.45798 0.947715 7.20489 0.947715 7.65983 1.15686Z" stroke="#2563EB" stroke-width="1.2" stroke-linecap="round" stroke-linejoin="round"/>
<path opacity="0.4" d="M0.863251 6.78985C0.863251 7.37545 1.29103 8.05167 1.81387 8.2887L6.42436 10.3941C6.77745 10.5544 7.17807 10.5544 7.52436 10.3941L12.1349 8.2887C12.6577 8.05167 13.0855 7.37545 13.0855 6.78985" stroke="#2563EB" stroke-width="1.2" stroke-linecap="round" stroke-linejoin="round"/>
<path opacity="0.4" d="M0.863251 10.2755C0.863251 10.9239 1.23671 11.5095 1.81387 11.7744L6.42436 13.8797C6.77745 14.0401 7.17807 14.0401 7.52436 13.8797L12.1349 11.7744C12.712 11.5095 13.0855 10.9239 13.0855 10.2755" stroke="#2563EB" stroke-width="1.2" stroke-linecap="round" stroke-linejoin="round"/>
</svg>
